<svg width="280" height="97" viewBox="0 0 280 97" fill="none" xmlns="http://www.w3.org/2000/svg">
<path d="M50.245 45C53.0683 45 54.48 46.4117 54.48 49.235C54.48 50.4483 54.13 52.5017 53.43 55.395C52.7533 58.2883 52.415 60.47 52.415 61.94C52.415 63.41 52.66 64.4833 53.15 65.16C51.9133 66.3033 50.6067 66.875 49.23 66.875C46.5467 66.875 45.205 65.4283 45.205 62.535C45.205 61.4617 45.555 59.6417 46.255 57.075C46.955 54.5083 47.305 52.84 47.305 52.07C47.305 51.02 46.9083 50.495 46.115 50.495C45.4617 50.495 44.715 50.7867 43.875 51.37C43.035 51.93 42.2183 52.7 41.425 53.68C40.655 54.6367 40.0017 55.8617 39.465 57.355C38.9283 58.825 38.66 60.33 38.66 61.87C38.66 63.3867 38.905 64.4833 39.395 65.16C38.1583 66.3033 36.8517 66.875 35.475 66.875C32.7917 66.875 31.45 65.4283 31.45 62.535C31.45 60.8083 31.9167 57.3083 32.85 52.035C33.6433 47.3917 34.0983 44.79 34.215 44.23L32.255 41.43C35.1717 39.7267 37.47 38.875 39.15 38.875C40.1067 38.875 40.7833 39.0733 41.18 39.47C41.5767 39.8433 41.775 40.4733 41.775 41.36C41.775 43.04 41.6117 44.8717 41.285 46.855C40.9583 48.8383 40.655 50.2967 40.375 51.23L40.725 51.405C43.2217 47.135 46.395 45 50.245 45ZM74.9003 47.66C76.207 47.66 77.327 48.185 78.2603 49.235C79.217 50.285 79.6953 51.8133 79.6953 53.82C79.6953 55.8033 79.3453 57.6467 78.6453 59.35C77.9453 61.03 77.0236 62.4067 75.8803 63.48C74.737 64.5533 73.442 65.3933 71.9953 66C70.5486 66.5833 69.067 66.875 67.5503 66.875C64.4936 66.875 62.0786 66.035 60.3053 64.355C58.532 62.675 57.6453 60.4467 57.6453 57.67C57.6453 53.9133 58.847 50.8683 61.2503 48.535C63.677 46.1783 66.757 45 70.4903 45C71.3303 45 72.1703 45.0933 73.0103 45.28C73.267 46.05 73.407 46.925 73.4303 47.905C73.9203 47.7417 74.4103 47.66 74.9003 47.66ZM70.5953 52.525C70.5953 51.8717 70.747 51.1367 71.0503 50.32C71.377 49.5033 71.8903 48.85 72.5903 48.36C69.5103 49.0133 67.387 50.2617 66.2203 52.105C65.217 53.6917 64.7153 55.325 64.7153 57.005C64.7153 58.685 65.0536 60.0383 65.7303 61.065C66.4303 62.0683 67.317 62.57 68.3903 62.57C70.7703 62.57 72.4503 61.0183 73.4303 57.915C71.5403 56.7483 70.5953 54.9517 70.5953 52.525ZM86.3048 44.23L84.3448 41.43C87.2615 39.7267 89.5598 38.875 91.2398 38.875C92.1965 38.875 92.8732 39.0733 93.2698 39.47C93.6665 39.8433 93.8648 40.5667 93.8648 41.64C93.8648 42.69 93.3398 45.6767 92.2898 50.6C91.2632 55.5233 90.7498 58.9767 90.7498 60.96C90.7498 62.9433 91.1115 64.3433 91.8348 65.16C90.2015 66.3033 88.7198 66.875 87.3898 66.875C86.0598 66.875 85.0798 66.4433 84.4498 65.58C83.8432 64.6933 83.5398 63.48 83.5398 61.94C83.5398 60.4 83.9715 57.25 84.8348 52.49C85.6982 47.73 86.1882 44.9767 86.3048 44.23ZM107.787 39.47C107.787 40.3567 107.32 41.1267 106.387 41.78C105.453 42.41 104.392 42.725 103.202 42.725C102.012 42.725 101.067 42.4917 100.367 42.025C99.69 41.5583 99.3516 40.9283 99.3516 40.135C99.3516 39.0617 99.8533 38.2217 100.857 37.615C101.86 37.0083 102.922 36.705 104.042 36.705C105.162 36.705 106.06 36.9383 106.737 37.405C107.437 37.8717 107.787 38.56 107.787 39.47ZM100.962 66.875C99.515 66.875 98.465 66.5133 97.8116 65.79C97.1583 65.0667 96.8316 63.97 96.8316 62.5C96.8316 61.0067 97.5783 57.0283 99.0716 50.565L97.1116 47.625C100.028 45.875 102.327 45 104.007 45C104.963 45 105.64 45.21 106.037 45.63C106.433 46.0267 106.632 46.68 106.632 47.59C106.632 47.94 106.2 49.9933 105.337 53.75C104.473 57.5067 104.042 60.19 104.042 61.8C104.042 63.41 104.403 64.53 105.127 65.16C103.82 66.3033 102.432 66.875 100.962 66.875ZM123.246 63.445L122.896 63.27C121.076 65.6733 118.906 66.875 116.386 66.875C114.519 66.875 112.933 66.14 111.626 64.67C110.343 63.1767 109.701 61.17 109.701 58.65C109.701 55.5233 110.798 52.6767 112.991 50.11C114.064 48.85 115.499 47.835 117.296 47.065C119.093 46.2717 121.099 45.875 123.316 45.875C123.736 45.875 124.483 45.9217 125.556 46.015C125.603 45.525 125.708 44.93 125.871 44.23L123.911 41.43C126.828 39.7267 129.126 38.875 130.806 38.875C131.763 38.875 132.439 39.0733 132.836 39.47C133.233 39.8433 133.431 40.5667 133.431 41.64C133.431 42.69 132.906 45.6767 131.856 50.6C130.829 55.5233 130.316 59.0233 130.316 61.1C130.316 63.1533 130.678 64.5067 131.401 65.16C130.094 66.3033 128.729 66.875 127.306 66.875C125.906 66.875 124.879 66.525 124.226 65.825C123.573 65.1017 123.246 64.3083 123.246 63.445ZM116.281 57.32C116.281 58.65 116.619 59.7 117.296 60.47C117.996 61.24 118.859 61.625 119.886 61.625C121.216 61.625 122.429 60.995 123.526 59.735C123.899 55.5817 124.424 51.9883 125.101 48.955C122.418 48.955 120.271 49.8183 118.661 51.545C117.074 53.2717 116.281 55.1967 116.281 57.32ZM149.253 61.695L148.903 61.52C148.273 63.2 147.363 64.5183 146.173 65.475C145.006 66.4083 143.699 66.875 142.253 66.875C140.269 66.875 138.683 66.1283 137.493 64.635C136.303 63.1417 135.708 61.1467 135.708 58.65C135.708 54.7767 137.003 51.5333 139.593 48.92C142.206 46.3067 145.449 45 149.323 45C150.326 45 151.248 45.0933 152.088 45.28C152.228 45.9333 152.309 46.505 152.333 46.995C153.499 46.2483 154.701 45.875 155.938 45.875C157.641 45.875 158.493 46.7967 158.493 48.64C158.493 49.2933 158.119 51.265 157.373 54.555C156.649 57.845 156.288 60.2833 156.288 61.87C156.288 63.4567 156.649 64.5533 157.373 65.16C156.066 66.3033 154.701 66.875 153.278 66.875C151.878 66.875 150.851 66.455 150.198 65.615C149.568 64.775 149.253 63.4683 149.253 61.695ZM142.288 56.935C142.288 58.0783 142.521 58.965 142.988 59.595C143.478 60.2017 144.166 60.505 145.053 60.505C145.939 60.505 146.814 60.1783 147.678 59.525C148.541 58.8717 149.264 57.9733 149.848 56.83C150.058 54.4733 150.513 51.685 151.213 48.465C148.856 48.465 146.779 49.3167 144.983 51.02C143.186 52.7233 142.288 54.695 142.288 56.935ZM171.699 65.3C170.602 65.6967 169.506 65.895 168.409 65.895C167.312 65.895 166.391 65.5683 165.644 64.915C164.897 64.2617 164.466 63.375 164.349 62.255C164.232 61.135 164.127 59.5133 164.034 57.39C163.941 55.2433 163.847 53.7267 163.754 52.84C163.451 49.8767 162.517 47.765 160.954 46.505C162.051 45.5017 163.427 45 165.084 45C165.994 45 166.787 45.245 167.464 45.735C168.141 46.2017 168.677 46.8317 169.074 47.625C169.494 48.395 169.832 49.3983 170.089 50.635C170.486 52.6883 170.684 55.465 170.684 58.965C170.684 59.8283 170.649 60.8433 170.579 62.01H172.609C175.012 55.5233 176.214 51.1017 176.214 48.745C176.214 47.9517 176.039 47.205 175.689 46.505C177.322 45.5017 178.746 45 179.959 45C182.222 45 183.354 46.3067 183.354 48.92C183.354 50.9967 182.397 54.6483 180.484 59.875C180.134 60.8317 179.936 61.3917 179.889 61.555C176.926 70.0017 172.714 74.225 167.254 74.225C165.597 74.225 164.232 73.8633 163.159 73.14C162.086 72.44 161.549 71.5067 161.549 70.34C161.549 69.1967 161.981 67.995 162.844 66.735C163.964 68.3217 165.364 69.115 167.044 69.115C168.001 69.115 168.887 68.8 169.704 68.17C170.544 67.54 171.209 66.5833 171.699 65.3ZM207.998 49.655C207.135 49.9117 206.447 50.285 205.933 50.775C205.42 51.2417 204.965 51.9183 204.568 52.805C208.512 53.3883 211.288 54.2283 212.898 55.325C214.508 56.4217 215.313 57.985 215.313 60.015C215.313 61.2983 214.952 62.4183 214.228 63.375C213.505 64.3083 212.595 65.02 211.498 65.51C209.352 66.42 207.24 66.875 205.163 66.875C199.26 66.875 196.308 65.6033 196.308 63.06C196.308 61.7767 196.88 60.4933 198.023 59.21C198.607 60.0267 199.482 60.7267 200.648 61.31C201.838 61.8933 202.993 62.185 204.113 62.185C206.05 62.185 207.217 61.3333 207.613 59.63C204.067 59.21 201.5 58.4167 199.913 57.25C198.327 56.0833 197.533 54.4383 197.533 52.315C197.533 50.635 198.082 49.2233 199.178 48.08C200.298 46.9367 201.675 46.1433 203.308 45.7C204.965 45.2333 206.82 45 208.873 45C210.95 45 212.653 45.3967 213.983 46.19C215.337 46.96 216.013 47.905 216.013 49.025C216.013 50.145 215.617 51.0083 214.823 51.615C214.053 52.2217 213.202 52.525 212.268 52.525C211.358 52.525 210.518 52.28 209.748 51.79C209.002 51.3 208.418 50.5883 207.998 49.655ZM232.343 61.695L231.993 61.52C231.363 63.2 230.453 64.5183 229.263 65.475C228.097 66.4083 226.79 66.875 225.343 66.875C223.36 66.875 221.773 66.1283 220.583 64.635C219.393 63.1417 218.798 61.1467 218.798 58.65C218.798 54.7767 220.093 51.5333 222.683 48.92C225.297 46.3067 228.54 45 232.413 45C233.417 45 234.338 45.0933 235.178 45.28C235.318 45.9333 235.4 46.505 235.423 46.995C236.59 46.2483 237.792 45.875 239.028 45.875C240.732 45.875 241.583 46.7967 241.583 48.64C241.583 49.2933 241.21 51.265 240.463 54.555C239.74 57.845 239.378 60.2833 239.378 61.87C239.378 63.4567 239.74 64.5533 240.463 65.16C239.157 66.3033 237.792 66.875 236.368 66.875C234.968 66.875 233.942 66.455 233.288 65.615C232.658 64.775 232.343 63.4683 232.343 61.695ZM225.378 56.935C225.378 58.0783 225.612 58.965 226.078 59.595C226.568 60.2017 227.257 60.505 228.143 60.505C229.03 60.505 229.905 60.1783 230.768 59.525C231.632 58.8717 232.355 57.9733 232.938 56.83C233.148 54.4733 233.603 51.685 234.303 48.465C231.947 48.465 229.87 49.3167 228.073 51.02C226.277 52.7233 225.378 54.695 225.378 56.935ZM248.385 44.23L246.425 41.43C249.342 39.7267 251.64 38.875 253.32 38.875C254.277 38.875 254.953 39.0733 255.35 39.47C255.747 39.8433 255.945 40.5667 255.945 41.64C255.945 42.69 255.42 45.6767 254.37 50.6C253.343 55.5233 252.83 58.9767 252.83 60.96C252.83 62.9433 253.192 64.3433 253.915 65.16C252.282 66.3033 250.8 66.875 249.47 66.875C248.14 66.875 247.16 66.4433 246.53 65.58C245.923 64.6933 245.62 63.48 245.62 61.94C245.62 60.4 246.052 57.25 246.915 52.49C247.778 47.73 248.268 44.9767 248.385 44.23ZM268.222 66.875C265.025 66.875 262.552 66.0467 260.802 64.39C259.075 62.7333 258.212 60.4933 258.212 57.67C258.212 53.9133 259.495 50.8683 262.062 48.535C264.652 46.1783 267.895 45 271.792 45C273.962 45 275.607 45.49 276.727 46.47C277.847 47.4267 278.407 48.6983 278.407 50.285C278.407 52.455 277.345 54.2633 275.222 55.71C273.122 57.1333 269.867 57.8567 265.457 57.88C265.527 59.3733 265.865 60.5517 266.472 61.415C267.078 62.255 267.837 62.675 268.747 62.675C269.657 62.675 270.438 62.3717 271.092 61.765C271.768 61.1583 272.107 60.1667 272.107 58.79C275.513 58.79 277.217 59.595 277.217 61.205C277.217 62.5817 276.377 63.8767 274.697 65.09C273.017 66.28 270.858 66.875 268.222 66.875ZM271.197 49.095C270.007 49.095 268.91 49.69 267.907 50.88C266.927 52.07 266.215 53.47 265.772 55.08C268.105 54.8933 269.855 54.3683 271.022 53.505C272.212 52.6183 272.807 51.685 272.807 50.705C272.807 50.2383 272.655 49.8533 272.352 49.55C272.072 49.2467 271.687 49.095 271.197 49.095Z" fill="#2B625B"/>
<line x1="64" y1="96" x2="64" y2="83" stroke="#2B625B" stroke-width="2" stroke-linecap="round" stroke-linejoin="round"/>
<line x1="1.00112" y1="50.0011" x2="14.0011" y2="50.0157" stroke="#2B625B" stroke-width="2" stroke-linecap="round" stroke-linejoin="round"/>
<line x1="24.8901" y1="88.9892" x2="33.3399" y2="79.1099" stroke="#2B625B" stroke-width="2" stroke-linecap="round" stroke-linejoin="round"/>
<line x1="92.4115" y1="78.9127" x2="101.913" y2="87.3064" stroke="#2B625B" stroke-width="2" stroke-linecap="round" stroke-linejoin="round"/>
<line x1="23.4115" y1="10.9127" x2="32.9127" y2="19.3064" stroke="#2B625B" stroke-width="2" stroke-linecap="round" stroke-linejoin="round"/>
<line x1="86.0353" y1="17.2759" x2="95.2994" y2="8.62123" stroke="#2B625B" stroke-width="2" stroke-linecap="round" stroke-linejoin="round"/>
<line x1="61.6487" y1="1.4525" x2="61.8424" y2="14.1289" stroke="#2B625B" stroke-width="2" stroke-linecap="round" stroke-linejoin="round"/>
</svg>
