<svg xmlns="http://www.w3.org/2000/svg" width="30" height="27" viewBox="0 0 30 27"><title>Artboard 1</title><path d="M10.34,19.72a3.69,3.69,0,0,0-3.7,3.64A3.75,3.75,0,0,0,10.34,27,3.68,3.68,0,0,0,14,23.36,3.63,3.63,0,0,0,10.34,19.72Zm0,5.15a1.57,1.57,0,0,1-1.53-1.51,1.59,1.59,0,0,1,1.53-1.6,1.56,1.56,0,1,1,0,3.11Z" fill="#ffb888" fill-rule="evenodd"/><path d="M22.14,19.72a3.69,3.69,0,0,0-3.7,3.64A3.75,3.75,0,0,0,22.14,27a3.68,3.68,0,0,0,3.69-3.64A3.63,3.63,0,0,0,22.14,19.72Zm0,5.15a1.57,1.57,0,0,1-1.53-1.51,1.59,1.59,0,0,1,1.53-1.6,1.56,1.56,0,1,1,0,3.11Z" fill="#ffb888" fill-rule="evenodd"/><path d="M28.9,5.51H6.1L5.11.8A1.08,1.08,0,0,0,4,0h-3a1,1,0,1,0,0,2H3.22L6.55,17.23a1.06,1.06,0,0,0,1,.8H26.28a1.06,1.06,0,0,0,1-.8L30,6.75A1.08,1.08,0,0,0,28.9,5.51Zm-1.36,2L25.47,15.9h-17L6.55,7.55Z" fill="#ffb888" fill-rule="evenodd"/></svg>