<svg xmlns="http://www.w3.org/2000/svg" width="84" height="28.37" viewBox="0 0 84 28.37"><title>Artboard 1</title><path d="M33.86,13.18H26.19V1.1s0-.1-.06-.27S26.06.49,26,.31,26,0,26,0h2.74V11.39h5.17Zm9.6,0h-8V1.1L35.18,0h8.28V1.78H37.92V5.51h4.25V7.29H37.92v4.1h5.54ZM52.8,1.78h-5V5.51h3.84V7.29H47.83v5.89h-2.5V1.1a2.51,2.51,0,0,0-.07-.27c0-.17-.08-.34-.13-.52S45.08,0,45.08,0H52.8Zm10.67,0H59.76v11.4H57.19V1.78H53.53V0h9.94Z" fill="#1a1a1a"/><path d="M36.7,28.18H34.22V22.29H28.69v5.89H26.21V16.1s0-.1-.08-.27-.07-.34-.12-.52S26,15,26,15h2.74v5.51h5.53V15H36.7Zm14.07-6.57a7,7,0,0,1-1.71,4.87,5.94,5.94,0,0,1-4.64,1.89,5.75,5.75,0,0,1-4.59-1.9,7.33,7.33,0,0,1-1.64-4.9,7.11,7.11,0,0,1,1.66-4.88,5.77,5.77,0,0,1,4.59-1.89,5.87,5.87,0,0,1,4.66,1.89A7.09,7.09,0,0,1,50.77,21.61Zm-2.66.07a8.58,8.58,0,0,0-.18-1.8,6.28,6.28,0,0,0-.58-1.64A3,3,0,0,0,46.2,17a3.19,3.19,0,0,0-1.74-.47,3.26,3.26,0,0,0-1.73.45,3,3,0,0,0-1.14,1.19A6.08,6.08,0,0,0,41,19.73a8.36,8.36,0,0,0-.18,1.77A9,9,0,0,0,41,23.32,6.87,6.87,0,0,0,41.59,25a3.09,3.09,0,0,0,2.9,1.71,3.34,3.34,0,0,0,1.73-.43A3,3,0,0,0,47.35,25a6,6,0,0,0,.58-1.58A8.53,8.53,0,0,0,48.11,21.68Zm14.6,1.49a5,5,0,0,1-1.42,3.94,5.41,5.41,0,0,1-3.76,1.26A5.24,5.24,0,0,1,53.68,27a5.27,5.27,0,0,1-1.33-3.87V16.08L52.06,15h2.82v8.77a2.9,2.9,0,1,0,5.8,0V15h2Zm10.07,1.14a3.65,3.65,0,0,1-1.35,3,5,5,0,0,1-3.28,1.08,8.24,8.24,0,0,1-4.23-1l.85-2a4.46,4.46,0,0,0,3.15,1.31,2.43,2.43,0,0,0,1.56-.5,1.65,1.65,0,0,0,.67-1.4,1.77,1.77,0,0,0-.43-1.16,3.09,3.09,0,0,0-1.08-.79c-.42-.19-.89-.41-1.39-.66s-1-.53-1.4-.8a3.26,3.26,0,0,1-1.07-1.11,3.37,3.37,0,0,1-.43-1.69,3.28,3.28,0,0,1,1.28-2.81,5.64,5.64,0,0,1,3.44-1,6.42,6.42,0,0,1,1.87.33,5.12,5.12,0,0,1,1.62.75l-1.24,1.55a3.6,3.6,0,0,0-2.49-.9,2.17,2.17,0,0,0-1.31.4A1.29,1.29,0,0,0,67,18a1.62,1.62,0,0,0,.43,1.12,3.46,3.46,0,0,0,1.06.76c.44.19.9.42,1.41.68a14.78,14.78,0,0,1,1.38.81,3,3,0,0,1,1.08,1.15A3.49,3.49,0,0,1,72.78,24.31Zm9.56,3.87h-8V16.1L74.06,15h8.28v1.78H76.8v3.73h4.25v1.78H76.8v4.1h5.54Z" fill="#1a1a1a"/><path d="M23,28.18H12V.18H23Zm-10-1h9v-26H13Z" fill="#1a1a1a"/><path d="M11,28.18H0v-12H11Zm-10-1h9v-10H1Z" fill="#1a1a1a"/></svg>